<?xml version="1.0" encoding="UTF-8" standalone="no"?>
<svg
   width="166.7668"
   height="163.23451"
   x="0px"
   y="0px"
   viewBox="0 0 166.7668 163.23451"
   preserveAspectRatio="xMidYMid"
   version="1.1"
   id="svg1134"
   sodipodi:docname="gaucho.svg"
   inkscape:version="1.2.1 (9c6d41e, 2022-07-14)"
   xmlns:inkscape="http://www.inkscape.org/namespaces/inkscape"
   xmlns:sodipodi="http://sodipodi.sourceforge.net/DTD/sodipodi-0.dtd"
   xmlns="http://www.w3.org/2000/svg"
   xmlns:svg="http://www.w3.org/2000/svg">
  <defs
     id="defs1138">
    <clipPath
       clipPathUnits="userSpaceOnUse"
       id="clipPath1738">
      <rect
         style="opacity:0.328571;fill:#000000;fill-opacity:1;stroke-width:2.5459;stroke-linecap:round;stroke-linejoin:round;stroke-miterlimit:0;stroke-dashoffset:7558.29"
         id="rect1740"
         width="219.70863"
         height="202.94373"
         x="51.177113"
         y="54.70657"
         transform="matrix(0.75903614,0,0,0.81304348,52.920579,17.286662)" />
    </clipPath>
  </defs>
  <sodipodi:namedview
     id="namedview1136"
     pagecolor="#ffffff"
     bordercolor="#000000"
     borderopacity="0.25"
     inkscape:showpageshadow="2"
     inkscape:pageopacity="0.0"
     inkscape:pagecheckerboard="0"
     inkscape:deskcolor="#d1d1d1"
     showgrid="false"
     inkscape:zoom="1.6297089"
     inkscape:cx="141.7431"
     inkscape:cy="120.88048"
     inkscape:window-width="1512"
     inkscape:window-height="884"
     inkscape:window-x="0"
     inkscape:window-y="38"
     inkscape:window-maximized="1"
     inkscape:current-layer="svg1134" />
  <g
     fill-rule="evenodd"
     clip-rule="evenodd"
     id="g1132"
     clip-path="url(#clipPath1738)"
     transform="translate(-91.765857,-61.765482)">
    <path
       fill="#d9261c"
       d="m 156.15,73.47 5.23,-7.6 6.81,5.38 4.91,-5.86 4.12,5.38 7.92,-5.86 3.01,6.97 8.23,-4.75 2.85,7.76 9.34,-2.37 0.63,6.33 7.92,-2.53 1.43,8.08 7.28,-2.06 -0.32,8.08 8.23,-1.11 -0.47,8.87 9.34,-0.47 -3.01,6.81 6.33,2.38 -2.06,6.33 8.39,2.22 -4.91,5.7 8.08,3.48 -5.7,5.38 7.13,3.8 -5.7,3.64 4.28,4.12 -5.54,4.12 5.38,5.23 -5.38,4.12 4.91,5.7 -5.7,1.9 4.12,6.02 -6.81,1.9 3.48,6.49 -6.33,0.48 2.22,7.76 -8.08,1.42 0.47,8.39 -6.49,0.63 v 7.76 h -6.49 l -1.43,7.76 -8.39,-3.33 -0.16,9.34 -7.76,-3.33 -2.85,7.28 -8.39,-5.23 -4.12,7.28 -6.49,-4.59 -6.02,6.33 -6.33,-4.91 -7.28,4.59 -5.07,-5.7 -6.49,3.48 -4.43,-6.65 -8.87,2.22 0.63,-7.28 -9.82,1.9 0.16,-7.76 -7.28,2.85 v -9.03 l -9.5,-0.95 2.85,-5.7 -8.08,-1.27 2.53,-7.13 -7.28,-0.79 3.17,-6.81 -7.13,-1.9 4.43,-6.18 -7.44,-1.11 4.59,-4.59 -5.7,-3.01 4.75,-5.38 -5.7,-3.48 5.54,-3.48 -6.65,-4.75 7.13,-4.43 -5.38,-5.54 5.7,-1.74 -3.17,-5.38 4.28,-1.27 -3.01,-5.86 5.7,-1.9 -1.58,-7.92 6.18,-0.32 -2.38,-8.39 8.08,-0.16 0.32,-9.03 6.65,1.27 0.79,-7.44 7.44,0.63 0.79,-7.13 6.97,2.53 1.27,-7.44 7.44,3.01 3.96,-6.65 m 23.39,2.02 c 40.56,0 73.65,33.08 73.65,73.65 0,40.56 -33.08,73.65 -73.65,73.65 -40.56,0 -73.65,-33.08 -73.65,-73.65 0,-40.57 33.08,-73.65 73.65,-73.65 z"
       id="path1118" />
    <path
       fill="#ffffff"
       d="m 176.02,71.31 c 40.56,0 73.65,33.08 73.65,73.65 0,40.56 -33.08,73.65 -73.65,73.65 -40.56,0 -73.65,-33.08 -73.65,-73.65 0.01,-40.56 33.09,-73.65 73.65,-73.65"
       id="path1120" />
    <path
       fill="#1a3882"
       d="m 189.36,181.89 c -0.31,4.95 0,8.31 0.56,13.47 0.2,2.24 1.89,2.7 3.26,0.56 1.12,-1.79 1.58,-2.75 2.81,-4.44 0.97,-1.28 1.68,-3.11 4.13,-3.37 5.25,-0.51 9.39,-2.09 13.26,-3.57 1.63,-0.61 1.79,-1.99 1.38,-3.77 -0.46,-1.84 -1.38,-2.55 -2.35,-4.23 -0.77,-1.43 0.2,-2.75 1.17,-3.37 4.54,-2.86 6.12,-6.73 8.82,-10.92 1.84,-2.81 -1.63,-2.3 -2.4,-1.68 -1.68,1.33 -2.4,2.55 -3.67,4.28 -0.87,1.17 -2.14,1.84 -3.57,3.06 -3.62,1.28 -5.41,1.89 -8.98,3.16 -0.41,0.15 -0.82,-0.87 -0.41,-1.07 0.56,-0.26 1.28,0 1.38,-0.61 0.15,-1.48 0.25,-2.24 0.41,-3.67 0.05,-0.61 -0.92,-1.07 -1.38,-0.66 -2.55,2.4 -3.77,3.62 -6.32,6.02 -1.02,0.97 -1.38,1.58 -2.19,2.75 -2.34,3.21 -3.51,4.84 -5.91,8.06 m 22.85,-18.52 c 0,0.36 -0.26,0.61 -0.61,0.61 -0.36,0 -0.61,-0.25 -0.61,-0.61 0,-0.36 0.25,-0.61 0.61,-0.61 0.36,0 0.61,0.26 0.61,0.61 z m 3.16,-2.65 c 0,0.51 -0.36,0.87 -0.82,0.87 -0.51,0 -0.87,-0.36 -0.87,-0.87 0,-0.46 0.36,-0.82 0.87,-0.82 0.47,0.01 0.82,0.36 0.82,0.82 z m -3.26,-2.19 c 0,0.56 -0.41,0.97 -0.92,0.97 a 0.97,0.97 0 0 1 -0.97,-0.97 c 0,-0.51 0.46,-0.92 0.97,-0.92 0.51,0 0.92,0.41 0.92,0.92 z m 3.77,-1.58 c 0,0.46 -0.36,0.87 -0.82,0.87 -0.46,0 -0.87,-0.41 -0.87,-0.87 0,-0.46 0.41,-0.82 0.87,-0.82 0.47,0 0.82,0.36 0.82,0.82 z m -2.9,-2.09 c 0,0.61 -0.51,1.07 -1.07,1.07 -0.56,0 -1.02,-0.46 -1.02,-1.07 0,-0.56 0.46,-1.02 1.02,-1.02 0.56,0 1.07,0.45 1.07,1.02 z m 5.56,-0.51 c 0,0.36 -0.36,0.71 -0.71,0.71 -0.41,0 -0.77,-0.36 -0.77,-0.71 0,-0.41 0.36,-0.77 0.77,-0.77 0.35,0 0.71,0.36 0.71,0.77 z m -2.66,-2.2 c 0,0.51 -0.41,0.92 -0.92,0.92 -0.56,0 -0.97,-0.41 -0.97,-0.92 0,-0.56 0.41,-0.97 0.97,-0.97 0.52,0 0.92,0.41 0.92,0.97 z m -4.84,-0.56 c 0,0.41 -0.31,0.77 -0.71,0.77 -0.41,0 -0.71,-0.36 -0.71,-0.77 0,-0.41 0.31,-0.71 0.71,-0.71 0.4,0 0.71,0.3 0.71,0.71 z m 0.76,-4.74 c 0,0.36 -0.31,0.66 -0.61,0.66 -0.36,0 -0.66,-0.31 -0.66,-0.66 0,-0.36 0.31,-0.61 0.66,-0.61 0.31,0 0.61,0.25 0.61,0.61 z m 4.24,0.76 c 0,0.36 -0.36,0.71 -0.77,0.71 -0.41,0 -0.71,-0.36 -0.71,-0.71 0,-0.41 0.31,-0.77 0.71,-0.77 0.41,0.01 0.77,0.36 0.77,0.77 z m 3.77,0.21 c 0,0.41 -0.36,0.71 -0.77,0.71 -0.41,0 -0.71,-0.31 -0.71,-0.71 0,-0.41 0.31,-0.77 0.71,-0.77 0.42,0 0.77,0.36 0.77,0.77 z m 1.89,-4.24 c 0,0.61 -0.46,1.07 -1.07,1.07 -0.56,0 -1.02,-0.46 -1.02,-1.07 0,-0.56 0.46,-1.07 1.02,-1.07 0.61,0 1.07,0.51 1.07,1.07 z m -5.92,0.11 c 0,0.61 -0.46,1.07 -1.02,1.07 -0.61,0 -1.07,-0.46 -1.07,-1.07 0,-0.56 0.46,-1.02 1.07,-1.02 0.56,-0.01 1.02,0.45 1.02,1.02 z m -48.61,-8.32 c -0.51,0.77 -1.38,1.28 -2.19,1.28 -0.82,0 0,-1.07 0.41,-1.68 0.71,-1.07 1.07,-1.48 1.89,-1.48 0.81,-0.01 0.35,1.27 -0.11,1.88 z m 21.68,-0.92 c 1.48,0 2.55,-1.79 3.57,-3.26 1.48,1.48 1.48,3.06 1.28,5.15 -0.25,2.55 -3.47,3.98 -4.18,2.45 -0.72,-1.53 -0.77,-2.86 -0.67,-4.34 z m -24.07,-5.05 c -1.33,-0.87 -1.73,-1.94 -3.26,-2.14 -3.16,-0.41 -5,1.68 -3.37,4.64 0.77,1.48 1.33,2.3 2.81,2.96 1.17,0.51 1.89,0.61 2.65,-1.17 0.71,-1.69 -0.72,-3.57 1.17,-4.29 z m -11.84,5.77 c -2.3,2.14 -2.5,4.54 -1.73,6.12 0.56,1.28 2.09,1.79 3.01,0.87 1.28,-1.28 1.68,-2.65 2.14,-4.44 -1.17,-0.77 -2.14,-1.89 -3.42,-2.55 z m -35.7,43.5 c -5.81,-9.95 -9.13,-21.47 -9.13,-33.71 0,-30.96 21.07,-57.28 49.63,-65.29 -1.94,13.41 -3.06,21.52 -2.65,35.96 -13.26,2.5 -19.59,3.32 -31.47,6.83 -5.46,1.58 -6.17,3.57 -1.58,4.74 10.1,2.5 18.52,2.3 30.09,2.91 0.15,1.38 0.26,2.04 0.41,3.37 -8.21,5.41 1.68,17.9 5.25,4.95 1.94,2.45 2.75,4.95 2.14,8.31 -0.31,1.58 -1.79,3.72 -4.23,2.35 -1.48,-0.87 -3.57,-1.48 -5.46,0 -2.24,1.73 -2.96,2.5 -5.46,4.85 -2.91,2.6 -6.32,2.19 -10.1,6.07 -7.19,7.39 -10.71,11.42 -17.44,18.66 z m 126.65,-33.71 c 0,23.11 -11.68,43.66 -29.48,55.9 -2.86,-5.15 -5.15,-7.19 -6.48,-13.06 2.65,-0.92 3.93,-1.17 6.38,-2.55 1.17,-0.61 2.24,-1.68 1.84,-3.57 -0.36,-1.43 0.2,-3.16 1.02,-4.18 0.97,-1.17 1.38,-2.24 0.87,-3.57 -0.41,-1.02 -0.1,-2.45 0.92,-2.96 2.55,-1.28 0.92,-3.77 2.55,-5.92 1.38,-1.79 3.06,-3.88 1.17,-5.87 L 226,145.05 c -0.41,-0.15 -0.61,-0.26 -1.02,-0.41 -1.33,5.56 -2.04,8.31 -3.37,14.33 -2.19,0.71 -3.06,1.89 -4.64,3.98 -2.75,3.72 -6.32,5.87 -11.27,6.53 0.1,-2.96 0.51,-8.87 2.14,-24.94 l -0.56,-0.1 c -1.02,7.6 -1.48,11.37 -2.5,18.92 -3.72,3.47 -5.56,5.2 -9.28,8.62 -5.66,-7.96 -9.69,-13.57 -15.81,-18.31 1.73,-5.05 2.55,-7.55 4.03,-12.19 -2.09,0.1 -2.19,5.15 -4.23,6.53 -0.82,0.56 -1.17,1.58 -1.22,2.96 -0.1,1.73 -0.15,2.65 -0.2,4.39 -0.15,2.6 -2.91,2.81 -3.37,0.56 -0.51,-2.3 -0.77,-3.42 -1.28,-5.61 -5.71,0.26 -8.11,-3.88 -6.53,-7.85 2.3,0.82 8.31,1.48 7.65,-0.77 -2.91,0.1 -7.14,0.31 -6.17,-1.17 0.71,-0.71 1.17,-1.12 2.09,-1.99 1.89,0.56 3.52,0.41 5.92,0.66 0.71,2.4 3.67,0.82 5.05,-1.68 -3.47,0 -5.92,0.1 -9.39,0.31 -0.2,-1.07 -0.2,-1.99 0.31,-3.06 -0.77,0.15 -1.12,0.26 -1.89,0.41 -1.38,0.66 -1.68,-0.41 -1.28,-1.89 0.66,-2.3 0.41,-4.34 0.87,-6.94 0.36,-2.35 2.45,-2.09 3.37,-0.61 1.89,2.91 6.27,2.7 10.51,0.2 1.22,-0.77 2.3,-0.05 2.86,0.82 0.97,1.58 2.19,3.37 0.82,5.36 -1.12,1.68 -1.28,3.57 -0.31,5.61 4.13,8.52 11.78,1.28 6.94,-8.21 12.65,-3.37 19.79,-4.85 30.35,-12.65 1.79,-1.33 4.34,-4.13 -2.14,-3.37 -10.71,1.28 -17.04,2.14 -28.21,5.71 -19.33,6.17 -30.91,5.46 -51.16,3.32 5.1,-1.73 7.6,-2.6 12.65,-4.39 19.99,0.82 31.57,-1.89 48.61,-6.32 -5.46,0.15 -8.16,0.26 -13.67,0.46 -3.01,-14.18 -4.69,-22.14 -8.93,-34.89 34.71,2.85 62.15,32.18 62.15,67.58 z m 3.41,0 c 0,39.17 -32.08,71.26 -71.31,71.26 -39.17,0 -71.25,-32.08 -71.25,-71.26 0,-39.17 32.08,-71.25 71.25,-71.25 39.23,0 71.31,32.08 71.31,71.25 z"
       id="path1122" />
    <g
       id="g1130">
      <path
         fill="#1a3882"
         d="m 347.88,21.97 c 0.09,-3.88 -1.48,-7.62 -2.48,-12.67 -7.58,1 -20.95,0.35 -28.61,0.87 -0.44,16.2 -0.17,24.39 0,40.81 h 28.61 c 0.87,-2.66 1.31,-3.96 2.13,-6.62 0.57,-1.35 0.57,-2.26 0.17,-3.53 -6.36,0.44 -11.24,0.83 -18.6,0.09 -0.61,-1.96 -0.7,-3.53 -0.09,-5.31 h 16.37 c 1.35,-3.83 -1.7,-6.53 -2.18,-10.67 -3.83,0.78 -8.88,0.61 -14.37,0.09 -0.13,-1 -0.3,-1.57 -0.61,-2.7 0,-1.18 0.96,-1.79 1.7,-1.79 7.29,-0.01 11.69,0.6 17.96,1.43 m -70.76,-0.74 c 1.13,-5.66 2.22,-7.71 3.75,-12.02 7.19,1.44 18.99,0.87 31.44,0.96 -0.44,4.22 -1.87,8.19 -2.92,12.32 -2.09,-0.09 -4.62,-1 -7.66,-1 -1.26,11.32 -0.52,24 0.17,29.48 h -15.37 c 1.52,-11.15 1.52,-19.12 1.44,-29.83 -2.54,-1.26 -7.54,0.52 -10.85,0.09 z m -23.3,14.72 c -0.09,-3.57 2.09,-5.36 3.44,-8.71 2.13,2.26 2.79,4.31 3.75,7.58 0.22,0.65 0.09,1.44 -0.7,1.52 -1.96,0.17 -4.31,-0.52 -6.49,-0.39 z m -18.95,14.5 c 2.48,-10.63 9.8,-24.91 15.72,-40.98 5.49,0.04 8.23,0.04 13.72,0.09 6.75,16.16 11.37,28.05 15.2,40.98 -5.49,0.17 -8.19,0.04 -13.63,0.09 -1.39,-1.7 -1.74,-3.79 -2.44,-5.66 -5.1,0.52 -8.27,0.04 -13.76,0.09 -0.78,2.31 -1.18,3.44 -1.96,5.75 -5.14,-0.14 -7.71,-0.23 -12.85,-0.36 z m -57.7,0.17 c 1.44,-11.06 6.75,-26.43 9.23,-40.81 3.53,0.04 5.27,0.04 8.75,0.09 2.48,6.75 3.7,10.1 6.18,16.81 0.44,1.7 1,0.52 1.44,0 2.35,-6.84 3.53,-10.23 5.84,-17.07 2.57,-0.13 3.83,-0.17 6.4,-0.26 1.61,-0.09 2.35,0.78 2.48,1.52 2.26,10.76 9.28,25.61 12.67,39.46 0.13,0.39 -0.44,0.65 -0.87,0.61 -2.53,-0.09 -9.36,0.17 -13.15,-0.35 -1.31,-3.18 -1.7,-12.32 -3.4,-14.5 -1.87,2.61 -3.88,10.19 -6.36,14.76 h -6.4 c -2.44,0 -2.31,-3 -2.79,-4.14 -1.52,-3.48 -2.22,-7.19 -4.14,-9.97 -1.61,4.7 -2.13,8.97 -2.96,13.85 -4.73,0.18 -7.78,0.74 -12.92,0 z m -26.26,-9.53 c -0.22,-0.3 -0.3,-0.48 -0.52,-0.78 1.79,-4.05 2.7,-6.05 4.57,-9.89 7.75,-0.09 11.67,-0.04 19.51,0.09 0.26,0.48 0.26,0.48 0.48,0.78 -0.7,3.48 -1.05,5.23 -1.74,8.71 0,0 -0.35,0.91 -0.87,0.91 -7.23,0.09 -15.46,0.35 -21.43,0.18 z m -27.74,-6.93 c -0.74,1.65 -0.83,4.05 -0.09,6.58 2.57,0.44 4.05,-0.83 5.84,-0.91 1.44,-0.04 2.48,-1.39 0.91,-3.05 -1.48,-1.53 -3.44,-2.44 -6.66,-2.62 z m 0.35,-15.46 c -0.83,2.18 -1.35,4.14 -0.35,6.84 1.22,0.17 2.31,0.26 4.14,0 3.48,-0.52 4.66,-4.92 0.09,-6.36 -1.57,-0.22 -2.36,-0.3 -3.88,-0.48 z M 110.41,9.38 c -0.3,15.85 -0.44,23.82 -0.65,39.46 l 1.09,1.61 c 4.66,-0.35 7.66,-0.26 12.85,0.26 8.23,0.87 15.63,1.44 20.12,-6.1 1.57,-2.57 2.7,-5.57 -0.7,-8.49 -1.57,-1.26 -3.05,-3 -4.14,-5.18 1.52,-1.96 2.44,-3.05 4.31,-5.23 2.18,-2.53 1.96,-5.36 -0.91,-8.45 -1.48,-1.57 -2.26,-2.35 -3.75,-3.92 -2.35,-2.53 -5.97,-4.49 -10.97,-4.14 -5.93,0.36 -11.15,1.23 -17.25,0.18 z M 65.47,9.91 c 1.79,14.55 0.35,23.73 -0.87,36.49 5.53,1.96 9.32,3.4 15.42,4.66 3.88,-2.35 6.05,-3.48 10.06,-4.66 0.26,1.22 0.48,2 0.91,3.57 5.53,-0.13 8.32,-0.22 13.85,-0.35 -0.74,-12.41 -1.44,-23.17 0.17,-38.63 -0.3,-0.57 -0.44,-0.87 -0.44,-0.87 C 101.04,9.73 97.82,9.55 93.51,10.08 92.42,21.1 91.9,26.59 90.81,37.6 90.68,38.73 90.2,39.3 89.55,39.91 86.68,39.74 82.19,41.35 79.84,38.86 79.67,26.8 80.01,21.4 79.14,9.73 74.44,9.38 70.87,9.38 65.47,9.91 Z M 32.94,9.38 c 1.61,16.5 1.44,33.05 0,41.5 6.1,0.91 16.72,-0.17 24.43,0 0.91,-3.61 3.61,-8.97 4.31,-11.85 -5.36,0.52 -9.71,1.26 -13.85,0.52 V 10.29 C 41.91,9.91 38.9,9.73 32.94,9.38 Z m -10.8,0.18 c -1.79,0 -3.48,0.09 -5.75,1.26 -4.09,2.13 -8.06,3.83 -11.93,9.23 -2.74,3.79 -6.36,10.89 -1.7,18.51 3.05,5.05 9.54,9.62 16.9,12.5 1.52,0.61 2.13,0.22 3.22,0 2.57,-3.66 3.88,-5.49 6.45,-9.15 -3.75,-1.26 -7.23,-1.52 -11.11,-5.23 -3.79,-3.57 -5.92,-7.53 -0.39,-12.24 6.31,-5.27 9.89,-4.27 11.5,-5.75 -2.88,-3.65 -4.32,-5.47 -7.19,-9.13 z"
         id="path1124" />
      <path
         fill="#f7c200"
         d="m 157.84,34.82 c -0.78,0.35 -0.96,1.13 -0.17,1 4.7,-0.17 7.62,0.44 11.76,-0.39 -0.97,-0.7 -6.45,-0.88 -11.59,-0.61 m 25.25,11.14 c 0.61,0.09 0.91,0.13 1.52,0.26 2.83,-10.71 4.27,-16.07 7.1,-26.78 4.31,9.62 7.01,14.55 10.63,24.61 0.39,1.09 1,0.65 1.26,0 2.96,-8.93 4.44,-13.41 7.45,-22.38 0.26,-0.83 0.52,-1.48 1.09,-1.96 3.7,10.5 5.57,15.76 9.32,26.26 0.65,0 0.96,0.04 1.61,0.09 -3.4,-7.66 -6.66,-17.86 -11.15,-29.79 -3.66,10.06 -5.49,15.07 -9.15,25.08 -4.49,-10.06 -6.75,-15.07 -11.24,-25.17 -3.34,11.93 -5.04,17.85 -8.44,29.78 z m 59.41,-1.17 c -0.65,1.48 0.22,1.22 0.78,0.3 1.09,-1.92 1.83,-3 2.74,-4.79 5.44,0.52 12.59,-0.04 20.99,-0.09 1.18,0.09 1.74,0.17 2.18,0.87 0.74,1.57 1.09,2.31 1.79,3.88 0.57,1.13 1.44,0.83 1.09,0 -4.75,-11.58 -7.14,-17.38 -11.85,-28.96 -0.44,-1 -0.83,-1.13 -2.09,-1.26 -1,-0.09 -1.52,-0.13 -2.53,-0.26 -5.92,12.5 -7.88,18.16 -13.1,30.31 z m 4.22,-5.75 c 3.88,-9.71 6.18,-15.46 9.8,-23.21 0.83,0.04 1.26,0.09 2.05,0.09 3.92,9.32 5.84,13.98 9.71,23.3 -7.8,-0.48 -15.99,0.26 -21.56,-0.18 z m 46.81,-22.56 c -3.31,-0.09 -4.96,-0.13 -8.27,-0.22 -0.57,0 -1.05,-1.35 -0.44,-1.44 1.87,-0.17 2.79,-0.3 4.66,-0.52 6.58,0.13 9.89,0.17 16.46,0.26 -0.65,0.83 -0.96,1.22 -1.61,2 -3.4,-0.04 -5.1,-0.09 -8.45,-0.09 -0.09,11.76 -0.13,17.59 -0.17,29.4 h -2.09 c -0.04,-11.79 -0.04,-17.63 -0.09,-29.39 z m 47.65,-0.74 c -0.09,-0.48 -0.13,-0.7 -0.17,-1.18 -7.58,-0.04 -11.32,-0.09 -18.9,-0.17 0.17,13.11 -0.17,19.6 0.48,32.71 7.19,0.57 12.11,0.17 18.51,-0.09 -0.17,-0.52 -0.22,-0.78 -0.39,-1.31 -6.53,0.26 -9.75,0.17 -16.5,0.04 -0.52,-5.92 -0.26,-8.88 -0.26,-14.72 h 15.72 c -0.04,-0.48 -0.04,-0.7 -0.09,-1.18 h -15.46 c -0.83,-5.66 -0.65,-9.49 -0.57,-14.2 7.04,0.06 10.57,0.06 17.63,0.1 z M 20.53,15.65 c -1.35,0.35 -2.18,0.17 -3.4,0.91 -3.96,2.31 -5.31,4.05 -8.19,7.27 -3.4,3.83 -2.92,9.36 -0.44,12.67 4.31,5.75 7.36,6.84 11.67,8.97 0.3,-0.44 0.44,-0.65 0.7,-1.09 C 15.86,43.33 12.73,39.89 10.64,37.02 7.9,33.2 6.98,29.5 10.03,24.93 c 2.88,-4.31 6.19,-5.53 10.5,-9.28 z m 19.42,-0.17 h 1.96 c -0.04,11.58 -0.09,17.38 -0.17,28.92 5.23,0.57 8.27,0.39 13.15,0.22 -0.44,0.57 -0.65,0.83 -1.09,1.44 -5.53,-0.17 -8.32,-0.22 -13.85,-0.35 z m 33.97,-1.09 c -0.74,0.09 -1.09,0.13 -1.79,0.17 0.52,8.27 0.17,14.94 -0.39,25 -0.09,2 0.48,3.44 2,3.96 1.74,0.61 2.53,1.09 4.31,1.61 1.26,0.35 1.96,0.22 3.22,0 5.18,-0.87 7.66,-1.26 12.93,-2.13 1.61,-0.3 2.53,0 2.7,0.7 0.39,1.52 1.44,0.83 1.44,-0.17 0,-9.89 -0.17,-17.46 1.09,-28.57 0.04,-0.48 -0.96,-0.83 -1.09,-0.39 -1.44,5.97 -1.26,15.68 -1.26,27.35 -6.62,0.44 -9.15,1.26 -15.2,2.22 -1.09,0.22 -2.61,0.52 -4.49,-0.35 -2.22,-1.05 -4.44,-2.13 -4.4,-3.22 0.54,-10.33 1.1,-18.6 0.93,-26.18 z m 42.07,-0.09 c 0,12.54 0.04,18.77 0.09,31.27 5.01,0.04 7.53,0.09 12.59,0.13 2.61,0 4.22,-0.48 6.36,-1.65 3.22,-1.74 2.87,-4.92 1.44,-7.45 -1.61,-2.83 -3.75,-4.31 -6.27,-6.36 2.7,-1 4.22,-2.09 6.01,-4.27 2.13,-2.53 1.7,-4.4 0.26,-6.53 -0.87,-1.35 -1.57,-1.96 -3.22,-3.44 -1.48,-1.31 -3.83,-2.13 -6.75,-2.31 -4.07,-0.26 -6.51,0 -10.51,0.61 z m 1.78,16.47 c 3.31,-0.09 5.23,-0.09 8.1,0.35 3.09,0.48 5.66,1.09 8.06,3.79 0.78,0.83 1,1.44 1.44,2.48 0.91,2 1,3.7 -1.09,5.14 -1.05,0.74 -1.7,1.09 -2.92,1.44 -1.52,0.44 -3.18,0.83 -5.49,0.65 l -8.27,-0.65 c -0.09,-5.41 -0.35,-7.94 0.17,-13.2 z m 0.18,-15.64 c -0.22,5.62 -0.3,8.4 -0.52,14.02 3.53,0.17 5.27,0.44 8.8,0.44 2.87,0 4.66,0 6.36,-1.79 1.13,-1.18 2.05,-1.48 2.87,-2.87 1.18,-1.87 0.91,-2.96 -0.44,-5.14 -0.74,-1.22 -1.35,-1.65 -2.44,-2.7 -1.87,-1.79 -3.75,-2.31 -5.66,-2.26 -3.57,0.13 -5.36,0.17 -8.97,0.3 z"
         id="path1126" />
      <path
         fill="#173882"
         d="m 353.52,1 a 4.97,4.97 0 1 1 -4.97,4.97 c 0,-2.75 2.22,-4.97 4.97,-4.97 m 0,0.61 c 2.44,0 4.4,1.96 4.4,4.36 0,2.44 -1.96,4.4 -4.4,4.4 -2.4,0 -4.4,-1.96 -4.4,-4.4 0,-2.4 2,-4.36 4.4,-4.36 z m -1.44,1.7 v 2.18 h 1.52 c 0.52,0 0.91,-0.09 1.13,-0.26 0.22,-0.17 0.35,-0.44 0.35,-0.87 0,-0.39 -0.13,-0.65 -0.35,-0.78 -0.17,-0.17 -0.57,-0.26 -1.13,-0.26 h -1.52 z m -0.83,-0.74 h 2.48 c 0.39,0 0.7,0 0.91,0.04 0.17,0.04 0.35,0.09 0.48,0.17 0.3,0.17 0.48,0.35 0.61,0.61 0.17,0.26 0.22,0.61 0.22,0.96 0,0.35 -0.04,0.61 -0.22,0.87 -0.13,0.26 -0.35,0.44 -0.65,0.57 0.26,0.09 0.44,0.22 0.52,0.39 0.13,0.13 0.17,0.44 0.22,0.83 l 0.09,1.05 c 0,0.22 0.04,0.39 0.09,0.52 0.04,0.09 0.09,0.17 0.17,0.22 v 0.17 h -1 C 355.08,8.84 355.04,8.58 355,8.14 V 8.1 l -0.04,-0.83 c -0.04,-0.44 -0.13,-0.7 -0.26,-0.83 -0.17,-0.13 -0.57,-0.22 -1.18,-0.22 h -1.39 v 2.74 h -0.87 V 2.57 Z"
         id="path1128" />
    </g>
  </g>
  <rect
     style="fill:none;stroke-width:2;stroke-linecap:round;stroke-linejoin:round;stroke-miterlimit:0;stroke-dashoffset:7558.29"
     id="rect1192"
     width="182.90678"
     height="163.75424"
     x="76.610168"
     y="59.372883"
     transform="translate(-91.765857,-61.765482)" />
</svg>
