<?xml version="1.0" encoding="UTF-8" standalone="no"?>
<svg
   width="359px"
   height="226px"
   x="0px"
   y="0px"
   viewBox="0 0 359 226"
   preserveAspectRatio="xMidYMid meet"
   version="1.1"
   id="svg1134"
   sodipodi:docname="logo.svg"
   inkscape:version="1.2.1 (9c6d41e, 2022-07-14)"
   xmlns:inkscape="http://www.inkscape.org/namespaces/inkscape"
   xmlns:sodipodi="http://sodipodi.sourceforge.net/DTD/sodipodi-0.dtd"
   xmlns="http://www.w3.org/2000/svg"
   xmlns:svg="http://www.w3.org/2000/svg">
  <defs
     id="defs1138" />
  <sodipodi:namedview
     id="namedview1136"
     pagecolor="#ffffff"
     bordercolor="#000000"
     borderopacity="0.25"
     inkscape:showpageshadow="2"
     inkscape:pageopacity="0.0"
     inkscape:pagecheckerboard="0"
     inkscape:deskcolor="#d1d1d1"
     showgrid="false"
     inkscape:zoom="1.6297089"
     inkscape:cx="141.7431"
     inkscape:cy="120.88048"
     inkscape:window-width="1512"
     inkscape:window-height="884"
     inkscape:window-x="0"
     inkscape:window-y="38"
     inkscape:window-maximized="1"
     inkscape:current-layer="svg1134" />
  <g
     fill-rule="evenodd"
     clip-rule="evenodd"
     id="g1132">
    <path
       fill="#D9261C"
       d="M156.15 73.47l5.23-7.6 6.81 5.38 4.91-5.86 4.12 5.38 7.92-5.86 3.01 6.97 8.23-4.75 2.85 7.76 9.34-2.37.63 6.33 7.92-2.53 1.43 8.08 7.28-2.06-.32 8.08 8.23-1.11-.47 8.87 9.34-.47-3.01 6.81 6.33 2.38-2.06 6.33 8.39 2.22-4.91 5.7 8.08 3.48-5.7 5.38 7.13 3.8-5.7 3.64 4.28 4.12-5.54 4.12 5.38 5.23-5.38 4.12 4.91 5.7-5.7 1.9 4.12 6.02-6.81 1.9 3.48 6.49-6.33.48 2.22 7.76-8.08 1.42.47 8.39-6.49.63v7.76h-6.49l-1.43 7.76-8.39-3.33-.16 9.34-7.76-3.33-2.85 7.28-8.39-5.23-4.12 7.28-6.49-4.59-6.02 6.33-6.33-4.91-7.28 4.59-5.07-5.7-6.49 3.48-4.43-6.65-8.87 2.22.63-7.28-9.82 1.9.16-7.76-7.28 2.85v-9.03l-9.5-.95 2.85-5.7-8.08-1.27 2.53-7.13-7.28-.79 3.17-6.81-7.13-1.9 4.43-6.18-7.44-1.11 4.59-4.59-5.7-3.01 4.75-5.38-5.7-3.48 5.54-3.48-6.65-4.75 7.13-4.43-5.38-5.54 5.7-1.74-3.17-5.38 4.28-1.27-3.01-5.86 5.7-1.9-1.58-7.92 6.18-.32-2.38-8.39 8.08-.16.32-9.03 6.65 1.27.79-7.44 7.44.63.79-7.13 6.97 2.53 1.27-7.44 7.44 3.01 3.96-6.65m23.39 2.02c40.56 0 73.65 33.08 73.65 73.65 0 40.56-33.08 73.65-73.65 73.65-40.56 0-73.65-33.08-73.65-73.65 0-40.57 33.08-73.65 73.65-73.65z"
       id="path1118" />
    <path
       fill="#FFF"
       d="M176.02 71.31c40.56 0 73.65 33.08 73.65 73.65 0 40.56-33.08 73.65-73.65 73.65-40.56 0-73.65-33.08-73.65-73.65.01-40.56 33.09-73.65 73.65-73.65"
       id="path1120" />
    <path
       fill="#1A3882"
       d="M189.36 181.89c-.31 4.95 0 8.31.56 13.47.2 2.24 1.89 2.7 3.26.56 1.12-1.79 1.58-2.75 2.81-4.44.97-1.28 1.68-3.11 4.13-3.37 5.25-.51 9.39-2.09 13.26-3.57 1.63-.61 1.79-1.99 1.38-3.77-.46-1.84-1.38-2.55-2.35-4.23-.77-1.43.2-2.75 1.17-3.37 4.54-2.86 6.12-6.73 8.82-10.92 1.84-2.81-1.63-2.3-2.4-1.68-1.68 1.33-2.4 2.55-3.67 4.28-.87 1.17-2.14 1.84-3.57 3.06-3.62 1.28-5.41 1.89-8.98 3.16-.41.15-.82-.87-.41-1.07.56-.26 1.28 0 1.38-.61.15-1.48.25-2.24.41-3.67.05-.61-.92-1.07-1.38-.66-2.55 2.4-3.77 3.62-6.32 6.02-1.02.97-1.38 1.58-2.19 2.75-2.34 3.21-3.51 4.84-5.91 8.06m22.85-18.52c0 .36-.26.61-.61.61-.36 0-.61-.25-.61-.61s.25-.61.61-.61.61.26.61.61zm3.16-2.65c0 .51-.36.87-.82.87-.51 0-.87-.36-.87-.87 0-.46.36-.82.87-.82.47.01.82.36.82.82zm-3.26-2.19c0 .56-.41.97-.92.97a.97.97 0 01-.97-.97c0-.51.46-.92.97-.92s.92.41.92.92zm3.77-1.58c0 .46-.36.87-.82.87-.46 0-.87-.41-.87-.87s.41-.82.87-.82c.47 0 .82.36.82.82zm-2.9-2.09c0 .61-.51 1.07-1.07 1.07s-1.02-.46-1.02-1.07c0-.56.46-1.02 1.02-1.02s1.07.45 1.07 1.02zm5.56-.51c0 .36-.36.71-.71.71-.41 0-.77-.36-.77-.71 0-.41.36-.77.77-.77.35 0 .71.36.71.77zm-2.66-2.2c0 .51-.41.92-.92.92-.56 0-.97-.41-.97-.92 0-.56.41-.97.97-.97.52 0 .92.41.92.97zm-4.84-.56c0 .41-.31.77-.71.77-.41 0-.71-.36-.71-.77 0-.41.31-.71.71-.71.4 0 .71.3.71.71zm.76-4.74c0 .36-.31.66-.61.66-.36 0-.66-.31-.66-.66 0-.36.31-.61.66-.61.31 0 .61.25.61.61zm4.24.76c0 .36-.36.71-.77.71-.41 0-.71-.36-.71-.71 0-.41.31-.77.71-.77.41.01.77.36.77.77zm3.77.21c0 .41-.36.71-.77.71-.41 0-.71-.31-.71-.71 0-.41.31-.77.71-.77.42 0 .77.36.77.77zm1.89-4.24c0 .61-.46 1.07-1.07 1.07-.56 0-1.02-.46-1.02-1.07 0-.56.46-1.07 1.02-1.07.61 0 1.07.51 1.07 1.07zm-5.92.11c0 .61-.46 1.07-1.02 1.07-.61 0-1.07-.46-1.07-1.07 0-.56.46-1.02 1.07-1.02.56-.01 1.02.45 1.02 1.02zm-48.61-8.32c-.51.77-1.38 1.28-2.19 1.28-.82 0 0-1.07.41-1.68.71-1.07 1.07-1.48 1.89-1.48.81-.01.35 1.27-.11 1.88zm21.68-.92c1.48 0 2.55-1.79 3.57-3.26 1.48 1.48 1.48 3.06 1.28 5.15-.25 2.55-3.47 3.98-4.18 2.45-.72-1.53-.77-2.86-.67-4.34zm-24.07-5.05c-1.33-.87-1.73-1.94-3.26-2.14-3.16-.41-5 1.68-3.37 4.64.77 1.48 1.33 2.3 2.81 2.96 1.17.51 1.89.61 2.65-1.17.71-1.69-.72-3.57 1.17-4.29zm-11.84 5.77c-2.3 2.14-2.5 4.54-1.73 6.12.56 1.28 2.09 1.79 3.01.87 1.28-1.28 1.68-2.65 2.14-4.44-1.17-.77-2.14-1.89-3.42-2.55zm-35.7 43.5c-5.81-9.95-9.13-21.47-9.13-33.71 0-30.96 21.07-57.28 49.63-65.29-1.94 13.41-3.06 21.52-2.65 35.96-13.26 2.5-19.59 3.32-31.47 6.83-5.46 1.58-6.17 3.57-1.58 4.74 10.1 2.5 18.52 2.3 30.09 2.91.15 1.38.26 2.04.41 3.37-8.21 5.41 1.68 17.9 5.25 4.95 1.94 2.45 2.75 4.95 2.14 8.31-.31 1.58-1.79 3.72-4.23 2.35-1.48-.87-3.57-1.48-5.46 0-2.24 1.73-2.96 2.5-5.46 4.85-2.91 2.6-6.32 2.19-10.1 6.07-7.19 7.39-10.71 11.42-17.44 18.66zm126.65-33.71c0 23.11-11.68 43.66-29.48 55.9-2.86-5.15-5.15-7.19-6.48-13.06 2.65-.92 3.93-1.17 6.38-2.55 1.17-.61 2.24-1.68 1.84-3.57-.36-1.43.2-3.16 1.02-4.18.97-1.17 1.38-2.24.87-3.57-.41-1.02-.1-2.45.92-2.96 2.55-1.28.92-3.77 2.55-5.92 1.38-1.79 3.06-3.88 1.17-5.87l3.32-14.13c-.41-.15-.61-.26-1.02-.41-1.33 5.56-2.04 8.31-3.37 14.33-2.19.71-3.06 1.89-4.64 3.98-2.75 3.72-6.32 5.87-11.27 6.53.1-2.96.51-8.87 2.14-24.94l-.56-.1c-1.02 7.6-1.48 11.37-2.5 18.92-3.72 3.47-5.56 5.2-9.28 8.62-5.66-7.96-9.69-13.57-15.81-18.31 1.73-5.05 2.55-7.55 4.03-12.19-2.09.1-2.19 5.15-4.23 6.53-.82.56-1.17 1.58-1.22 2.96-.1 1.73-.15 2.65-.2 4.39-.15 2.6-2.91 2.81-3.37.56-.51-2.3-.77-3.42-1.28-5.61-5.71.26-8.11-3.88-6.53-7.85 2.3.82 8.31 1.48 7.65-.77-2.91.1-7.14.31-6.17-1.17.71-.71 1.17-1.12 2.09-1.99 1.89.56 3.52.41 5.92.66.71 2.4 3.67.82 5.05-1.68-3.47 0-5.92.1-9.39.31-.2-1.07-.2-1.99.31-3.06-.77.15-1.12.26-1.89.41-1.38.66-1.68-.41-1.28-1.89.66-2.3.41-4.34.87-6.94.36-2.35 2.45-2.09 3.37-.61 1.89 2.91 6.27 2.7 10.51.2 1.22-.77 2.3-.05 2.86.82.97 1.58 2.19 3.37.82 5.36-1.12 1.68-1.28 3.57-.31 5.61 4.13 8.52 11.78 1.28 6.94-8.21 12.65-3.37 19.79-4.85 30.35-12.65 1.79-1.33 4.34-4.13-2.14-3.37-10.71 1.28-17.04 2.14-28.21 5.71-19.33 6.17-30.91 5.46-51.16 3.32 5.1-1.73 7.6-2.6 12.65-4.39 19.99.82 31.57-1.89 48.61-6.32-5.46.15-8.16.26-13.67.46-3.01-14.18-4.69-22.14-8.93-34.89 34.71 2.85 62.15 32.18 62.15 67.58zm3.41 0c0 39.17-32.08 71.26-71.31 71.26-39.17 0-71.25-32.08-71.25-71.26 0-39.17 32.08-71.25 71.25-71.25 39.23 0 71.31 32.08 71.31 71.25z"
       id="path1122" />
    <g
       id="g1130">
      <path
         fill="#1A3882"
         d="M347.88 21.97c.09-3.88-1.48-7.62-2.48-12.67-7.58 1-20.95.35-28.61.87-.44 16.2-.17 24.39 0 40.81h28.61c.87-2.66 1.31-3.96 2.13-6.62.57-1.35.57-2.26.17-3.53-6.36.44-11.24.83-18.6.09-.61-1.96-.7-3.53-.09-5.31h16.37c1.35-3.83-1.7-6.53-2.18-10.67-3.83.78-8.88.61-14.37.09-.13-1-.3-1.57-.61-2.7 0-1.18.96-1.79 1.7-1.79 7.29-.01 11.69.6 17.96 1.43m-70.76-.74c1.13-5.66 2.22-7.71 3.75-12.02 7.19 1.44 18.99.87 31.44.96-.44 4.22-1.87 8.19-2.92 12.32-2.09-.09-4.62-1-7.66-1-1.26 11.32-.52 24 .17 29.48h-15.37c1.52-11.15 1.52-19.12 1.44-29.83-2.54-1.26-7.54.52-10.85.09zm-23.3 14.72c-.09-3.57 2.09-5.36 3.44-8.71 2.13 2.26 2.79 4.31 3.75 7.58.22.65.09 1.44-.7 1.52-1.96.17-4.31-.52-6.49-.39zm-18.95 14.5c2.48-10.63 9.8-24.91 15.72-40.98 5.49.04 8.23.04 13.72.09 6.75 16.16 11.37 28.05 15.2 40.98-5.49.17-8.19.04-13.63.09-1.39-1.7-1.74-3.79-2.44-5.66-5.1.52-8.27.04-13.76.09-.78 2.31-1.18 3.44-1.96 5.75-5.14-.14-7.71-.23-12.85-.36zm-57.7.17c1.44-11.06 6.75-26.43 9.23-40.81 3.53.04 5.27.04 8.75.09 2.48 6.75 3.7 10.1 6.18 16.81.44 1.7 1 .52 1.44 0 2.35-6.84 3.53-10.23 5.84-17.07 2.57-.13 3.83-.17 6.4-.26 1.61-.09 2.35.78 2.48 1.52 2.26 10.76 9.28 25.61 12.67 39.46.13.39-.44.65-.87.61-2.53-.09-9.36.17-13.15-.35-1.31-3.18-1.7-12.32-3.4-14.5-1.87 2.61-3.88 10.19-6.36 14.76h-6.4c-2.44 0-2.31-3-2.79-4.14-1.52-3.48-2.22-7.19-4.14-9.97-1.61 4.7-2.13 8.97-2.96 13.85-4.73.18-7.78.74-12.92 0zm-26.26-9.53c-.22-.3-.3-.48-.52-.78 1.79-4.05 2.7-6.05 4.57-9.89 7.75-.09 11.67-.04 19.51.09.26.48.26.48.48.78-.7 3.48-1.05 5.23-1.74 8.71 0 0-.35.91-.87.91-7.23.09-15.46.35-21.43.18zm-27.74-6.93c-.74 1.65-.83 4.05-.09 6.58 2.57.44 4.05-.83 5.84-.91 1.44-.04 2.48-1.39.91-3.05-1.48-1.53-3.44-2.44-6.66-2.62zm.35-15.46c-.83 2.18-1.35 4.14-.35 6.84 1.22.17 2.31.26 4.14 0 3.48-.52 4.66-4.92.09-6.36-1.57-.22-2.36-.3-3.88-.48zm-13.11-9.32c-.3 15.85-.44 23.82-.65 39.46l1.09 1.61c4.66-.35 7.66-.26 12.85.26 8.23.87 15.63 1.44 20.12-6.1 1.57-2.57 2.7-5.57-.7-8.49-1.57-1.26-3.05-3-4.14-5.18 1.52-1.96 2.44-3.05 4.31-5.23 2.18-2.53 1.96-5.36-.91-8.45-1.48-1.57-2.26-2.35-3.75-3.92-2.35-2.53-5.97-4.49-10.97-4.14-5.93.36-11.15 1.23-17.25.18zm-44.94.53c1.79 14.55.35 23.73-.87 36.49 5.53 1.96 9.32 3.4 15.42 4.66 3.88-2.35 6.05-3.48 10.06-4.66.26 1.22.48 2 .91 3.57 5.53-.13 8.32-.22 13.85-.35-.74-12.41-1.44-23.17.17-38.63-.3-.57-.44-.87-.44-.87-3.53-.39-6.75-.57-11.06-.04-1.09 11.02-1.61 16.51-2.7 27.52-.13 1.13-.61 1.7-1.26 2.31-2.87-.17-7.36 1.44-9.71-1.05-.17-12.06.17-17.46-.7-29.13-4.7-.35-8.27-.35-13.67.18zm-32.53-.53c1.61 16.5 1.44 33.05 0 41.5 6.1.91 16.72-.17 24.43 0 .91-3.61 3.61-8.97 4.31-11.85-5.36.52-9.71 1.26-13.85.52V10.29c-5.92-.38-8.93-.56-14.89-.91zm-10.8.18c-1.79 0-3.48.09-5.75 1.26-4.09 2.13-8.06 3.83-11.93 9.23-2.74 3.79-6.36 10.89-1.7 18.51 3.05 5.05 9.54 9.62 16.9 12.5 1.52.61 2.13.22 3.22 0 2.57-3.66 3.88-5.49 6.45-9.15-3.75-1.26-7.23-1.52-11.11-5.23-3.79-3.57-5.92-7.53-.39-12.24 6.31-5.27 9.89-4.27 11.5-5.75-2.88-3.65-4.32-5.47-7.19-9.13z"
         id="path1124" />
      <path
         fill="#F7C200"
         d="M157.84 34.82c-.78.35-.96 1.13-.17 1 4.7-.17 7.62.44 11.76-.39-.97-.7-6.45-.88-11.59-.61m25.25 11.14c.61.09.91.13 1.52.26 2.83-10.71 4.27-16.07 7.1-26.78 4.31 9.62 7.01 14.55 10.63 24.61.39 1.09 1 .65 1.26 0 2.96-8.93 4.44-13.41 7.45-22.38.26-.83.52-1.48 1.09-1.96 3.7 10.5 5.57 15.76 9.32 26.26.65 0 .96.04 1.61.09-3.4-7.66-6.66-17.86-11.15-29.79-3.66 10.06-5.49 15.07-9.15 25.08-4.49-10.06-6.75-15.07-11.24-25.17-3.34 11.93-5.04 17.85-8.44 29.78zm59.41-1.17c-.65 1.48.22 1.22.78.3 1.09-1.92 1.83-3 2.74-4.79 5.44.52 12.59-.04 20.99-.09 1.18.09 1.74.17 2.18.87.74 1.57 1.09 2.31 1.79 3.88.57 1.13 1.44.83 1.09 0-4.75-11.58-7.14-17.38-11.85-28.96-.44-1-.83-1.13-2.09-1.26-1-.09-1.52-.13-2.53-.26-5.92 12.5-7.88 18.16-13.1 30.31zm4.22-5.75c3.88-9.71 6.18-15.46 9.8-23.21.83.04 1.26.09 2.05.09 3.92 9.32 5.84 13.98 9.71 23.3-7.8-.48-15.99.26-21.56-.18zm46.81-22.56c-3.31-.09-4.96-.13-8.27-.22-.57 0-1.05-1.35-.44-1.44 1.87-.17 2.79-.3 4.66-.52 6.58.13 9.89.17 16.46.26-.65.83-.96 1.22-1.61 2-3.4-.04-5.1-.09-8.45-.09-.09 11.76-.13 17.59-.17 29.4h-2.09c-.04-11.79-.04-17.63-.09-29.39zm47.65-.74c-.09-.48-.13-.7-.17-1.18-7.58-.04-11.32-.09-18.9-.17.17 13.11-.17 19.6.48 32.71 7.19.57 12.11.17 18.51-.09-.17-.52-.22-.78-.39-1.31-6.53.26-9.75.17-16.5.04-.52-5.92-.26-8.88-.26-14.72h15.72c-.04-.48-.04-.7-.09-1.18h-15.46c-.83-5.66-.65-9.49-.57-14.2 7.04.06 10.57.06 17.63.1zm-320.65-.09c-1.35.35-2.18.17-3.4.91-3.96 2.31-5.31 4.05-8.19 7.27-3.4 3.83-2.92 9.36-.44 12.67 4.31 5.75 7.36 6.84 11.67 8.97.3-.44.44-.65.7-1.09-5.01-1.05-8.14-4.49-10.23-7.36-2.74-3.82-3.66-7.52-.61-12.09 2.88-4.31 6.19-5.53 10.5-9.28zm19.42-.17h1.96c-.04 11.58-.09 17.38-.17 28.92 5.23.57 8.27.39 13.15.22-.44.57-.65.83-1.09 1.44-5.53-.17-8.32-.22-13.85-.35V15.48zm33.97-1.09c-.74.09-1.09.13-1.79.17.52 8.27.17 14.94-.39 25-.09 2 .48 3.44 2 3.96 1.74.61 2.53 1.09 4.31 1.61 1.26.35 1.96.22 3.22 0 5.18-.87 7.66-1.26 12.93-2.13 1.61-.3 2.53 0 2.7.7.39 1.52 1.44.83 1.44-.17 0-9.89-.17-17.46 1.09-28.57.04-.48-.96-.83-1.09-.39-1.44 5.97-1.26 15.68-1.26 27.35-6.62.44-9.15 1.26-15.2 2.22-1.09.22-2.61.52-4.49-.35-2.22-1.05-4.44-2.13-4.4-3.22.54-10.33 1.1-18.6.93-26.18zm42.07-.09c0 12.54.04 18.77.09 31.27 5.01.04 7.53.09 12.59.13 2.61 0 4.22-.48 6.36-1.65 3.22-1.74 2.87-4.92 1.44-7.45-1.61-2.83-3.75-4.31-6.27-6.36 2.7-1 4.22-2.09 6.01-4.27 2.13-2.53 1.7-4.4.26-6.53-.87-1.35-1.57-1.96-3.22-3.44-1.48-1.31-3.83-2.13-6.75-2.31-4.07-.26-6.51 0-10.51.61zm1.78 16.47c3.31-.09 5.23-.09 8.1.35 3.09.48 5.66 1.09 8.06 3.79.78.83 1 1.44 1.44 2.48.91 2 1 3.7-1.09 5.14-1.05.74-1.7 1.09-2.92 1.44-1.52.44-3.18.83-5.49.65l-8.27-.65c-.09-5.41-.35-7.94.17-13.2zm.18-15.64c-.22 5.62-.3 8.4-.52 14.02 3.53.17 5.27.44 8.8.44 2.87 0 4.66 0 6.36-1.79 1.13-1.18 2.05-1.48 2.87-2.87 1.18-1.87.91-2.96-.44-5.14-.74-1.22-1.35-1.65-2.44-2.7-1.87-1.79-3.75-2.31-5.66-2.26-3.57.13-5.36.17-8.97.3z"
         id="path1126" />
      <path
         fill="#173882"
         d="M353.52 1a4.97 4.97 0 11-4.97 4.97c0-2.75 2.22-4.97 4.97-4.97m0 .61c2.44 0 4.4 1.96 4.4 4.36 0 2.44-1.96 4.4-4.4 4.4-2.4 0-4.4-1.96-4.4-4.4 0-2.4 2-4.36 4.4-4.36zm-1.44 1.7v2.18h1.52c.52 0 .91-.09 1.13-.26.22-.17.35-.44.35-.87 0-.39-.13-.65-.35-.78-.17-.17-.57-.26-1.13-.26h-1.52zm-.83-.74h2.48c.39 0 .7 0 .91.04.17.04.35.09.48.17.3.17.48.35.61.61.17.26.22.61.22.96s-.04.61-.22.87c-.13.26-.35.44-.65.57.26.09.44.22.52.39.13.13.17.44.22.83l.09 1.05c0 .22.04.39.09.52.04.09.09.17.17.22v.17h-1c-.09-.13-.13-.39-.17-.83V8.1l-.04-.83c-.04-.44-.13-.7-.26-.83-.17-.13-.57-.22-1.18-.22h-1.39v2.74h-.87V2.57z"
         id="path1128" />
    </g>
  </g>
</svg>
